<?xml version="1.0" encoding="UTF-8" standalone="no"?>
<!DOCTYPE svg PUBLIC "-//W3C//DTD SVG 1.1//EN"
 "http://www.w3.org/Graphics/SVG/1.1/DTD/svg11.dtd">
<!-- Generated by graphviz version 2.43.0 (0)
 -->
<!-- Title: hayapracara_ragada / all Pages: 1 -->
<svg width="1149pt" height="154pt"
 viewBox="0.00 0.00 1148.60 154.00" xmlns="http://www.w3.org/2000/svg" xmlns:xlink="http://www.w3.org/1999/xlink">
<g id="graph0" class="graph" transform="scale(1 1) rotate(0) translate(4 150)">
<title>hayapracara_ragada / all</title>
<polygon fill="white" stroke="transparent" points="-4,4 -4,-150 1144.6,-150 1144.6,4 -4,4"/>
<text text-anchor="middle" x="570.3" y="-130.8" font-family="Helvetica,Arial,sans-serif" font-size="14.00">hayapracara_ragada / all &#160;· &#160;13 states, 20 edges</text>
<!-- __start -->
<g id="node1" class="node">
<title>__start</title>
<ellipse fill="#f4f4f4" stroke="black" cx="1.8" cy="-90" rx="1.8" ry="1.8"/>
</g>
<!-- 0 -->
<g id="node2" class="node">
<title>0</title>
<ellipse fill="#f4f4f4" stroke="black" cx="58.6" cy="-90" rx="18" ry="18"/>
<text text-anchor="middle" x="58.6" y="-87.8" font-family="Helvetica,Arial,sans-serif" font-size="9.00">0</text>
</g>
<!-- __start&#45;&gt;0 -->
<g id="edge1" class="edge">
<title>__start&#45;&gt;0</title>
<path fill="none" stroke="black" d="M3.75,-90C7.11,-90 18.87,-90 30.55,-90"/>
<polygon fill="black" stroke="black" points="30.58,-93.5 40.58,-90 30.58,-86.5 30.58,-93.5"/>
</g>
<!-- 1 -->
<g id="node3" class="node">
<title>1</title>
<ellipse fill="#f4f4f4" stroke="black" cx="234.6" cy="-105" rx="18" ry="18"/>
<text text-anchor="middle" x="234.6" y="-102.8" font-family="Helvetica,Arial,sans-serif" font-size="9.00">1</text>
</g>
<!-- 0&#45;&gt;1 -->
<g id="edge2" class="edge">
<title>0&#45;&gt;1</title>
<path fill="none" stroke="black" d="M76.71,-91.59C100.46,-93.78 144.79,-97.83 182.6,-101 190.39,-101.65 198.85,-102.33 206.6,-102.94"/>
<polygon fill="black" stroke="black" points="206.36,-106.43 216.6,-103.71 206.9,-99.45 206.36,-106.43"/>
<text text-anchor="middle" x="146.6" y="-101.8" font-family="Helvetica,sans-Serif" font-size="9.00">U (2)</text>
</g>
<!-- 2 -->
<g id="node4" class="node">
<title>2</title>
<ellipse fill="#f4f4f4" stroke="black" cx="146.6" cy="-63" rx="18" ry="18"/>
<text text-anchor="middle" x="146.6" y="-60.8" font-family="Helvetica,Arial,sans-serif" font-size="9.00">2</text>
</g>
<!-- 0&#45;&gt;2 -->
<g id="edge3" class="edge">
<title>0&#45;&gt;2</title>
<path fill="none" stroke="black" stroke-dasharray="5,2" d="M76.18,-84.79C88.44,-80.95 105.36,-75.63 119.44,-71.21"/>
<polygon fill="black" stroke="black" points="120.58,-74.52 129.07,-68.19 118.48,-67.85 120.58,-74.52"/>
<text text-anchor="middle" x="102.6" y="-80.8" font-family="Helvetica,sans-Serif" font-size="9.00">I (1)</text>
</g>
<!-- 3 -->
<g id="node5" class="node">
<title>3</title>
<ellipse fill="#f4f4f4" stroke="black" cx="322.6" cy="-75" rx="18" ry="18"/>
<text text-anchor="middle" x="322.6" y="-72.8" font-family="Helvetica,Arial,sans-serif" font-size="9.00">3</text>
</g>
<!-- 1&#45;&gt;3 -->
<g id="edge4" class="edge">
<title>1&#45;&gt;3</title>
<path fill="none" stroke="black" stroke-dasharray="5,2" d="M251.78,-99.36C264.15,-95.04 281.45,-89 295.74,-84.02"/>
<polygon fill="black" stroke="black" points="297.21,-87.22 305.5,-80.62 294.9,-80.61 297.21,-87.22"/>
<text text-anchor="middle" x="278.6" y="-94.8" font-family="Helvetica,sans-Serif" font-size="9.00">I (1)</text>
</g>
<!-- 2&#45;&gt;1 -->
<g id="edge6" class="edge">
<title>2&#45;&gt;1</title>
<path fill="none" stroke="black" stroke-dasharray="5,2" d="M162.98,-70.51C175.74,-76.74 194.13,-85.72 208.94,-92.96"/>
<polygon fill="black" stroke="black" points="207.55,-96.17 218.07,-97.41 210.62,-89.88 207.55,-96.17"/>
<text text-anchor="middle" x="190.6" y="-89.8" font-family="Helvetica,sans-Serif" font-size="9.00">I (1)</text>
</g>
<!-- 2&#45;&gt;3 -->
<g id="edge5" class="edge">
<title>2&#45;&gt;3</title>
<path fill="none" stroke="black" d="M164.71,-63.53C185.51,-64.25 221.66,-65.7 252.6,-68 266.48,-69.03 281.9,-70.56 294.64,-71.93"/>
<polygon fill="black" stroke="black" points="294.29,-75.41 304.61,-73.02 295.05,-68.45 294.29,-75.41"/>
<text text-anchor="middle" x="234.6" y="-70.8" font-family="Helvetica,sans-Serif" font-size="9.00">U (2)</text>
</g>
<!-- 4 -->
<g id="node6" class="node">
<title>4</title>
<ellipse fill="#f4f4f4" stroke="black" cx="498.6" cy="-90" rx="18" ry="18"/>
<text text-anchor="middle" x="498.6" y="-87.8" font-family="Helvetica,Arial,sans-serif" font-size="9.00">4</text>
</g>
<!-- 3&#45;&gt;4 -->
<g id="edge7" class="edge">
<title>3&#45;&gt;4</title>
<path fill="none" stroke="black" d="M340.71,-76.59C364.46,-78.78 408.79,-82.83 446.6,-86 454.39,-86.65 462.85,-87.33 470.6,-87.94"/>
<polygon fill="black" stroke="black" points="470.36,-91.43 480.6,-88.71 470.9,-84.45 470.36,-91.43"/>
<text text-anchor="middle" x="410.6" y="-86.8" font-family="Helvetica,sans-Serif" font-size="9.00">U (2)</text>
</g>
<!-- 5 -->
<g id="node7" class="node">
<title>5</title>
<ellipse fill="#f4f4f4" stroke="black" cx="410.6" cy="-48" rx="18" ry="18"/>
<text text-anchor="middle" x="410.6" y="-45.8" font-family="Helvetica,Arial,sans-serif" font-size="9.00">5</text>
</g>
<!-- 3&#45;&gt;5 -->
<g id="edge8" class="edge">
<title>3&#45;&gt;5</title>
<path fill="none" stroke="black" stroke-dasharray="5,2" d="M340.18,-69.79C352.44,-65.95 369.36,-60.63 383.44,-56.21"/>
<polygon fill="black" stroke="black" points="384.58,-59.52 393.07,-53.19 382.48,-52.85 384.58,-59.52"/>
<text text-anchor="middle" x="366.6" y="-65.8" font-family="Helvetica,sans-Serif" font-size="9.00">I (1)</text>
</g>
<!-- 6 -->
<g id="node8" class="node">
<title>6</title>
<ellipse fill="#f4f4f4" stroke="black" cx="586.6" cy="-60" rx="18" ry="18"/>
<text text-anchor="middle" x="586.6" y="-57.8" font-family="Helvetica,Arial,sans-serif" font-size="9.00">6</text>
</g>
<!-- 4&#45;&gt;6 -->
<g id="edge9" class="edge">
<title>4&#45;&gt;6</title>
<path fill="none" stroke="black" stroke-dasharray="5,2" d="M515.78,-84.36C528.15,-80.04 545.45,-74 559.74,-69.02"/>
<polygon fill="black" stroke="black" points="561.21,-72.22 569.5,-65.62 558.9,-65.61 561.21,-72.22"/>
<text text-anchor="middle" x="542.6" y="-79.8" font-family="Helvetica,sans-Serif" font-size="9.00">I (1)</text>
</g>
<!-- 5&#45;&gt;4 -->
<g id="edge11" class="edge">
<title>5&#45;&gt;4</title>
<path fill="none" stroke="black" stroke-dasharray="5,2" d="M426.98,-55.51C439.74,-61.74 458.13,-70.72 472.94,-77.96"/>
<polygon fill="black" stroke="black" points="471.55,-81.17 482.07,-82.41 474.62,-74.88 471.55,-81.17"/>
<text text-anchor="middle" x="454.6" y="-74.8" font-family="Helvetica,sans-Serif" font-size="9.00">I (1)</text>
</g>
<!-- 5&#45;&gt;6 -->
<g id="edge10" class="edge">
<title>5&#45;&gt;6</title>
<path fill="none" stroke="black" d="M428.71,-48.53C449.51,-49.25 485.66,-50.7 516.6,-53 530.48,-54.03 545.9,-55.56 558.64,-56.93"/>
<polygon fill="black" stroke="black" points="558.29,-60.41 568.61,-58.02 559.05,-53.45 558.29,-60.41"/>
<text text-anchor="middle" x="498.6" y="-55.8" font-family="Helvetica,sans-Serif" font-size="9.00">U (2)</text>
</g>
<!-- 7 -->
<g id="node9" class="node">
<title>7</title>
<ellipse fill="#f4f4f4" stroke="black" cx="762.6" cy="-75" rx="18" ry="18"/>
<text text-anchor="middle" x="762.6" y="-72.8" font-family="Helvetica,Arial,sans-serif" font-size="9.00">7</text>
</g>
<!-- 6&#45;&gt;7 -->
<g id="edge12" class="edge">
<title>6&#45;&gt;7</title>
<path fill="none" stroke="black" d="M604.69,-61.88C628.43,-64.44 672.74,-69.04 710.6,-72 718.38,-72.61 726.84,-73.15 734.59,-73.61"/>
<polygon fill="black" stroke="black" points="734.41,-77.1 744.59,-74.16 734.8,-70.11 734.41,-77.1"/>
<text text-anchor="middle" x="674.6" y="-72.8" font-family="Helvetica,sans-Serif" font-size="9.00">U (2)</text>
</g>
<!-- 8 -->
<g id="node10" class="node">
<title>8</title>
<ellipse fill="#f4f4f4" stroke="black" cx="674.6" cy="-33" rx="18" ry="18"/>
<text text-anchor="middle" x="674.6" y="-30.8" font-family="Helvetica,Arial,sans-serif" font-size="9.00">8</text>
</g>
<!-- 6&#45;&gt;8 -->
<g id="edge13" class="edge">
<title>6&#45;&gt;8</title>
<path fill="none" stroke="black" stroke-dasharray="5,2" d="M604.18,-54.79C616.44,-50.95 633.36,-45.63 647.44,-41.21"/>
<polygon fill="black" stroke="black" points="648.58,-44.52 657.07,-38.19 646.48,-37.85 648.58,-44.52"/>
<text text-anchor="middle" x="630.6" y="-51.8" font-family="Helvetica,sans-Serif" font-size="9.00">I (1)</text>
</g>
<!-- 9 -->
<g id="node11" class="node">
<title>9</title>
<ellipse fill="#f4f4f4" stroke="black" cx="850.6" cy="-45" rx="18" ry="18"/>
<text text-anchor="middle" x="850.6" y="-42.8" font-family="Helvetica,Arial,sans-serif" font-size="9.00">9</text>
</g>
<!-- 7&#45;&gt;9 -->
<g id="edge14" class="edge">
<title>7&#45;&gt;9</title>
<path fill="none" stroke="black" stroke-dasharray="5,2" d="M779.78,-69.36C792.15,-65.04 809.45,-59 823.74,-54.02"/>
<polygon fill="black" stroke="black" points="825.21,-57.22 833.5,-50.62 822.9,-50.61 825.21,-57.22"/>
<text text-anchor="middle" x="806.6" y="-65.8" font-family="Helvetica,sans-Serif" font-size="9.00">I (1)</text>
</g>
<!-- 8&#45;&gt;7 -->
<g id="edge16" class="edge">
<title>8&#45;&gt;7</title>
<path fill="none" stroke="black" stroke-dasharray="5,2" d="M690.98,-40.51C703.74,-46.74 722.13,-55.72 736.94,-62.96"/>
<polygon fill="black" stroke="black" points="735.55,-66.17 746.07,-67.41 738.62,-59.88 735.55,-66.17"/>
<text text-anchor="middle" x="718.6" y="-60.8" font-family="Helvetica,sans-Serif" font-size="9.00">I (1)</text>
</g>
<!-- 8&#45;&gt;9 -->
<g id="edge15" class="edge">
<title>8&#45;&gt;9</title>
<path fill="none" stroke="black" d="M692.71,-33.53C713.51,-34.25 749.66,-35.7 780.6,-38 794.48,-39.03 809.9,-40.56 822.64,-41.93"/>
<polygon fill="black" stroke="black" points="822.29,-45.41 832.61,-43.02 823.05,-38.45 822.29,-45.41"/>
<text text-anchor="middle" x="762.6" y="-40.8" font-family="Helvetica,sans-Serif" font-size="9.00">U (2)</text>
</g>
<!-- 10 -->
<g id="node12" class="node">
<title>10</title>
<ellipse fill="#f4f4f4" stroke="black" cx="1026.6" cy="-60" rx="18" ry="18"/>
<text text-anchor="middle" x="1026.6" y="-57.8" font-family="Helvetica,Arial,sans-serif" font-size="9.00">10</text>
</g>
<!-- 9&#45;&gt;10 -->
<g id="edge17" class="edge">
<title>9&#45;&gt;10</title>
<path fill="none" stroke="black" d="M868.69,-46.88C892.43,-49.44 936.74,-54.04 974.6,-57 982.38,-57.61 990.84,-58.15 998.59,-58.61"/>
<polygon fill="black" stroke="black" points="998.41,-62.1 1008.59,-59.16 998.8,-55.11 998.41,-62.1"/>
<text text-anchor="middle" x="938.6" y="-58.8" font-family="Helvetica,sans-Serif" font-size="9.00">U (2)</text>
</g>
<!-- 11 -->
<g id="node13" class="node">
<title>11</title>
<ellipse fill="#f4f4f4" stroke="black" cx="938.6" cy="-18" rx="18" ry="18"/>
<text text-anchor="middle" x="938.6" y="-15.8" font-family="Helvetica,Arial,sans-serif" font-size="9.00">11</text>
</g>
<!-- 9&#45;&gt;11 -->
<g id="edge18" class="edge">
<title>9&#45;&gt;11</title>
<path fill="none" stroke="black" stroke-dasharray="5,2" d="M868.18,-39.79C880.44,-35.95 897.36,-30.63 911.44,-26.21"/>
<polygon fill="black" stroke="black" points="912.58,-29.52 921.07,-23.19 910.48,-22.85 912.58,-29.52"/>
<text text-anchor="middle" x="894.6" y="-36.8" font-family="Helvetica,sans-Serif" font-size="9.00">I (1)</text>
</g>
<!-- 12 -->
<g id="node14" class="node">
<title>12</title>
<ellipse fill="#f4f4f4" stroke="black" cx="1118.6" cy="-30" rx="18" ry="18"/>
<ellipse fill="none" stroke="black" cx="1118.6" cy="-30" rx="22" ry="22"/>
<text text-anchor="middle" x="1118.6" y="-27.8" font-family="Helvetica,Arial,sans-serif" font-size="9.00">12</text>
</g>
<!-- 10&#45;&gt;12 -->
<g id="edge19" class="edge">
<title>10&#45;&gt;12</title>
<path fill="none" stroke="black" stroke-dasharray="5,2" d="M1044.11,-54.5C1056.31,-50.43 1073.27,-44.78 1087.82,-39.93"/>
<polygon fill="black" stroke="black" points="1089.04,-43.21 1097.42,-36.73 1086.82,-36.57 1089.04,-43.21"/>
<text text-anchor="middle" x="1070.6" y="-50.8" font-family="Helvetica,sans-Serif" font-size="9.00">I (1)</text>
</g>
<!-- 11&#45;&gt;10 -->
<g id="edge21" class="edge">
<title>11&#45;&gt;10</title>
<path fill="none" stroke="black" stroke-dasharray="5,2" d="M954.98,-25.51C967.74,-31.74 986.13,-40.72 1000.94,-47.96"/>
<polygon fill="black" stroke="black" points="999.55,-51.17 1010.07,-52.41 1002.62,-44.88 999.55,-51.17"/>
<text text-anchor="middle" x="982.6" y="-45.8" font-family="Helvetica,sans-Serif" font-size="9.00">I (1)</text>
</g>
<!-- 11&#45;&gt;12 -->
<g id="edge20" class="edge">
<title>11&#45;&gt;12</title>
<path fill="none" stroke="black" d="M956.71,-18.56C977.51,-19.3 1013.65,-20.78 1044.6,-23 1058.29,-23.98 1073.4,-25.38 1086.3,-26.67"/>
<polygon fill="black" stroke="black" points="1086.24,-30.18 1096.54,-27.71 1086.95,-23.21 1086.24,-30.18"/>
<text text-anchor="middle" x="1026.6" y="-25.8" font-family="Helvetica,sans-Serif" font-size="9.00">U (2)</text>
</g>
</g>
</svg>
