<?xml version="1.0" encoding="UTF-8" standalone="no"?>
<!DOCTYPE svg PUBLIC "-//W3C//DTD SVG 1.1//EN"
 "http://www.w3.org/Graphics/SVG/1.1/DTD/svg11.dtd">
<!-- Generated by graphviz version 2.43.0 (0)
 -->
<!-- Title: mattebhavikriditamu / all Pages: 1 -->
<svg width="1903pt" height="75pt"
 viewBox="0.00 0.00 1902.60 75.00" xmlns="http://www.w3.org/2000/svg" xmlns:xlink="http://www.w3.org/1999/xlink">
<g id="graph0" class="graph" transform="scale(1 1) rotate(0) translate(4 71)">
<title>mattebhavikriditamu / all</title>
<polygon fill="white" stroke="transparent" points="-4,4 -4,-71 1898.6,-71 1898.6,4 -4,4"/>
<text text-anchor="middle" x="947.3" y="-51.8" font-family="Helvetica,Arial,sans-serif" font-size="14.00">mattebhavikriditamu / all &#160;· &#160;21 states, 20 edges</text>
<!-- __start -->
<g id="node1" class="node">
<title>__start</title>
<ellipse fill="#f4f4f4" stroke="black" cx="1.8" cy="-22" rx="1.8" ry="1.8"/>
</g>
<!-- 0 -->
<g id="node2" class="node">
<title>0</title>
<ellipse fill="#f4f4f4" stroke="black" cx="58.6" cy="-22" rx="18" ry="18"/>
<text text-anchor="middle" x="58.6" y="-19.8" font-family="Helvetica,Arial,sans-serif" font-size="9.00">0</text>
</g>
<!-- __start&#45;&gt;0 -->
<g id="edge1" class="edge">
<title>__start&#45;&gt;0</title>
<path fill="none" stroke="black" d="M3.75,-22C7.11,-22 18.87,-22 30.55,-22"/>
<polygon fill="black" stroke="black" points="30.58,-25.5 40.58,-22 30.58,-18.5 30.58,-25.5"/>
</g>
<!-- 1 -->
<g id="node3" class="node">
<title>1</title>
<ellipse fill="#f4f4f4" stroke="black" cx="146.6" cy="-22" rx="18" ry="18"/>
<text text-anchor="middle" x="146.6" y="-19.8" font-family="Helvetica,Arial,sans-serif" font-size="9.00">1</text>
</g>
<!-- 0&#45;&gt;1 -->
<g id="edge2" class="edge">
<title>0&#45;&gt;1</title>
<path fill="none" stroke="black" stroke-dasharray="5,2" d="M77,-22C88.85,-22 104.78,-22 118.31,-22"/>
<polygon fill="black" stroke="black" points="118.52,-25.5 128.52,-22 118.52,-18.5 118.52,-25.5"/>
<text text-anchor="middle" x="102.6" y="-24.8" font-family="Helvetica,sans-Serif" font-size="9.00">I (1)</text>
</g>
<!-- 2 -->
<g id="node4" class="node">
<title>2</title>
<ellipse fill="#f4f4f4" stroke="black" cx="234.6" cy="-22" rx="18" ry="18"/>
<text text-anchor="middle" x="234.6" y="-19.8" font-family="Helvetica,Arial,sans-serif" font-size="9.00">2</text>
</g>
<!-- 1&#45;&gt;2 -->
<g id="edge3" class="edge">
<title>1&#45;&gt;2</title>
<path fill="none" stroke="black" stroke-dasharray="5,2" d="M165,-22C176.85,-22 192.78,-22 206.31,-22"/>
<polygon fill="black" stroke="black" points="206.52,-25.5 216.52,-22 206.52,-18.5 206.52,-25.5"/>
<text text-anchor="middle" x="190.6" y="-24.8" font-family="Helvetica,sans-Serif" font-size="9.00">I (1)</text>
</g>
<!-- 3 -->
<g id="node5" class="node">
<title>3</title>
<ellipse fill="#f4f4f4" stroke="black" cx="327.6" cy="-22" rx="18" ry="18"/>
<text text-anchor="middle" x="327.6" y="-19.8" font-family="Helvetica,Arial,sans-serif" font-size="9.00">3</text>
</g>
<!-- 2&#45;&gt;3 -->
<g id="edge4" class="edge">
<title>2&#45;&gt;3</title>
<path fill="none" stroke="black" d="M252.72,-22C265.81,-22 284.12,-22 299.24,-22"/>
<polygon fill="black" stroke="black" points="299.56,-25.5 309.56,-22 299.56,-18.5 299.56,-25.5"/>
<text text-anchor="middle" x="281.1" y="-24.8" font-family="Helvetica,sans-Serif" font-size="9.00">U (2)</text>
</g>
<!-- 4 -->
<g id="node6" class="node">
<title>4</title>
<ellipse fill="#f4f4f4" stroke="black" cx="420.6" cy="-22" rx="18" ry="18"/>
<text text-anchor="middle" x="420.6" y="-19.8" font-family="Helvetica,Arial,sans-serif" font-size="9.00">4</text>
</g>
<!-- 3&#45;&gt;4 -->
<g id="edge5" class="edge">
<title>3&#45;&gt;4</title>
<path fill="none" stroke="black" d="M345.72,-22C358.81,-22 377.12,-22 392.24,-22"/>
<polygon fill="black" stroke="black" points="392.56,-25.5 402.56,-22 392.56,-18.5 392.56,-25.5"/>
<text text-anchor="middle" x="374.1" y="-24.8" font-family="Helvetica,sans-Serif" font-size="9.00">U (2)</text>
</g>
<!-- 5 -->
<g id="node7" class="node">
<title>5</title>
<ellipse fill="#f4f4f4" stroke="black" cx="508.6" cy="-22" rx="18" ry="18"/>
<text text-anchor="middle" x="508.6" y="-19.8" font-family="Helvetica,Arial,sans-serif" font-size="9.00">5</text>
</g>
<!-- 4&#45;&gt;5 -->
<g id="edge6" class="edge">
<title>4&#45;&gt;5</title>
<path fill="none" stroke="black" stroke-dasharray="5,2" d="M439,-22C450.85,-22 466.78,-22 480.31,-22"/>
<polygon fill="black" stroke="black" points="480.52,-25.5 490.52,-22 480.52,-18.5 480.52,-25.5"/>
<text text-anchor="middle" x="464.6" y="-24.8" font-family="Helvetica,sans-Serif" font-size="9.00">I (1)</text>
</g>
<!-- 6 -->
<g id="node8" class="node">
<title>6</title>
<ellipse fill="#f4f4f4" stroke="black" cx="596.6" cy="-22" rx="18" ry="18"/>
<text text-anchor="middle" x="596.6" y="-19.8" font-family="Helvetica,Arial,sans-serif" font-size="9.00">6</text>
</g>
<!-- 5&#45;&gt;6 -->
<g id="edge7" class="edge">
<title>5&#45;&gt;6</title>
<path fill="none" stroke="black" stroke-dasharray="5,2" d="M527,-22C538.85,-22 554.78,-22 568.31,-22"/>
<polygon fill="black" stroke="black" points="568.52,-25.5 578.52,-22 568.52,-18.5 568.52,-25.5"/>
<text text-anchor="middle" x="552.6" y="-24.8" font-family="Helvetica,sans-Serif" font-size="9.00">I (1)</text>
</g>
<!-- 7 -->
<g id="node9" class="node">
<title>7</title>
<ellipse fill="#f4f4f4" stroke="black" cx="689.6" cy="-22" rx="18" ry="18"/>
<text text-anchor="middle" x="689.6" y="-19.8" font-family="Helvetica,Arial,sans-serif" font-size="9.00">7</text>
</g>
<!-- 6&#45;&gt;7 -->
<g id="edge8" class="edge">
<title>6&#45;&gt;7</title>
<path fill="none" stroke="black" d="M614.72,-22C627.81,-22 646.12,-22 661.24,-22"/>
<polygon fill="black" stroke="black" points="661.56,-25.5 671.56,-22 661.56,-18.5 661.56,-25.5"/>
<text text-anchor="middle" x="643.1" y="-24.8" font-family="Helvetica,sans-Serif" font-size="9.00">U (2)</text>
</g>
<!-- 8 -->
<g id="node10" class="node">
<title>8</title>
<ellipse fill="#f4f4f4" stroke="black" cx="777.6" cy="-22" rx="18" ry="18"/>
<text text-anchor="middle" x="777.6" y="-19.8" font-family="Helvetica,Arial,sans-serif" font-size="9.00">8</text>
</g>
<!-- 7&#45;&gt;8 -->
<g id="edge9" class="edge">
<title>7&#45;&gt;8</title>
<path fill="none" stroke="black" stroke-dasharray="5,2" d="M708,-22C719.85,-22 735.78,-22 749.31,-22"/>
<polygon fill="black" stroke="black" points="749.52,-25.5 759.52,-22 749.52,-18.5 749.52,-25.5"/>
<text text-anchor="middle" x="733.6" y="-24.8" font-family="Helvetica,sans-Serif" font-size="9.00">I (1)</text>
</g>
<!-- 9 -->
<g id="node11" class="node">
<title>9</title>
<ellipse fill="#f4f4f4" stroke="black" cx="870.6" cy="-22" rx="18" ry="18"/>
<text text-anchor="middle" x="870.6" y="-19.8" font-family="Helvetica,Arial,sans-serif" font-size="9.00">9</text>
</g>
<!-- 8&#45;&gt;9 -->
<g id="edge10" class="edge">
<title>8&#45;&gt;9</title>
<path fill="none" stroke="black" d="M795.72,-22C808.81,-22 827.12,-22 842.24,-22"/>
<polygon fill="black" stroke="black" points="842.56,-25.5 852.56,-22 842.56,-18.5 842.56,-25.5"/>
<text text-anchor="middle" x="824.1" y="-24.8" font-family="Helvetica,sans-Serif" font-size="9.00">U (2)</text>
</g>
<!-- 10 -->
<g id="node12" class="node">
<title>10</title>
<ellipse fill="#f4f4f4" stroke="black" cx="958.6" cy="-22" rx="18" ry="18"/>
<text text-anchor="middle" x="958.6" y="-19.8" font-family="Helvetica,Arial,sans-serif" font-size="9.00">10</text>
</g>
<!-- 9&#45;&gt;10 -->
<g id="edge11" class="edge">
<title>9&#45;&gt;10</title>
<path fill="none" stroke="black" stroke-dasharray="5,2" d="M889,-22C900.85,-22 916.78,-22 930.31,-22"/>
<polygon fill="black" stroke="black" points="930.52,-25.5 940.52,-22 930.52,-18.5 930.52,-25.5"/>
<text text-anchor="middle" x="914.6" y="-24.8" font-family="Helvetica,sans-Serif" font-size="9.00">I (1)</text>
</g>
<!-- 11 -->
<g id="node13" class="node">
<title>11</title>
<ellipse fill="#f4f4f4" stroke="black" cx="1046.6" cy="-22" rx="18" ry="18"/>
<text text-anchor="middle" x="1046.6" y="-19.8" font-family="Helvetica,Arial,sans-serif" font-size="9.00">11</text>
</g>
<!-- 10&#45;&gt;11 -->
<g id="edge12" class="edge">
<title>10&#45;&gt;11</title>
<path fill="none" stroke="black" stroke-dasharray="5,2" d="M977,-22C988.85,-22 1004.78,-22 1018.31,-22"/>
<polygon fill="black" stroke="black" points="1018.52,-25.5 1028.52,-22 1018.52,-18.5 1018.52,-25.5"/>
<text text-anchor="middle" x="1002.6" y="-24.8" font-family="Helvetica,sans-Serif" font-size="9.00">I (1)</text>
</g>
<!-- 12 -->
<g id="node14" class="node">
<title>12</title>
<ellipse fill="#f4f4f4" stroke="black" cx="1134.6" cy="-22" rx="18" ry="18"/>
<text text-anchor="middle" x="1134.6" y="-19.8" font-family="Helvetica,Arial,sans-serif" font-size="9.00">12</text>
</g>
<!-- 11&#45;&gt;12 -->
<g id="edge13" class="edge">
<title>11&#45;&gt;12</title>
<path fill="none" stroke="black" stroke-dasharray="5,2" d="M1065,-22C1076.85,-22 1092.78,-22 1106.31,-22"/>
<polygon fill="black" stroke="black" points="1106.52,-25.5 1116.52,-22 1106.52,-18.5 1106.52,-25.5"/>
<text text-anchor="middle" x="1090.6" y="-24.8" font-family="Helvetica,sans-Serif" font-size="9.00">I (1)</text>
</g>
<!-- 13 -->
<g id="node15" class="node">
<title>13</title>
<ellipse fill="#f4f4f4" stroke="black" cx="1227.6" cy="-22" rx="18" ry="18"/>
<text text-anchor="middle" x="1227.6" y="-19.8" font-family="Helvetica,Arial,sans-serif" font-size="9.00">13</text>
</g>
<!-- 12&#45;&gt;13 -->
<g id="edge14" class="edge">
<title>12&#45;&gt;13</title>
<path fill="none" stroke="black" d="M1152.72,-22C1165.81,-22 1184.12,-22 1199.24,-22"/>
<polygon fill="black" stroke="black" points="1199.56,-25.5 1209.56,-22 1199.56,-18.5 1199.56,-25.5"/>
<text text-anchor="middle" x="1181.1" y="-24.8" font-family="Helvetica,sans-Serif" font-size="9.00">U (2)</text>
</g>
<!-- 14 -->
<g id="node16" class="node">
<title>14</title>
<ellipse fill="#f4f4f4" stroke="black" cx="1320.6" cy="-22" rx="18" ry="18"/>
<text text-anchor="middle" x="1320.6" y="-19.8" font-family="Helvetica,Arial,sans-serif" font-size="9.00">14</text>
</g>
<!-- 13&#45;&gt;14 -->
<g id="edge15" class="edge">
<title>13&#45;&gt;14</title>
<path fill="none" stroke="black" d="M1245.72,-22C1258.81,-22 1277.12,-22 1292.24,-22"/>
<polygon fill="black" stroke="black" points="1292.56,-25.5 1302.56,-22 1292.56,-18.5 1292.56,-25.5"/>
<text text-anchor="middle" x="1274.1" y="-24.8" font-family="Helvetica,sans-Serif" font-size="9.00">U (2)</text>
</g>
<!-- 15 -->
<g id="node17" class="node">
<title>15</title>
<ellipse fill="#f4f4f4" stroke="black" cx="1413.6" cy="-22" rx="18" ry="18"/>
<text text-anchor="middle" x="1413.6" y="-19.8" font-family="Helvetica,Arial,sans-serif" font-size="9.00">15</text>
</g>
<!-- 14&#45;&gt;15 -->
<g id="edge16" class="edge">
<title>14&#45;&gt;15</title>
<path fill="none" stroke="black" d="M1338.72,-22C1351.81,-22 1370.12,-22 1385.24,-22"/>
<polygon fill="black" stroke="black" points="1385.56,-25.5 1395.56,-22 1385.56,-18.5 1385.56,-25.5"/>
<text text-anchor="middle" x="1367.1" y="-24.8" font-family="Helvetica,sans-Serif" font-size="9.00">U (2)</text>
</g>
<!-- 16 -->
<g id="node18" class="node">
<title>16</title>
<ellipse fill="#f4f4f4" stroke="black" cx="1501.6" cy="-22" rx="18" ry="18"/>
<text text-anchor="middle" x="1501.6" y="-19.8" font-family="Helvetica,Arial,sans-serif" font-size="9.00">16</text>
</g>
<!-- 15&#45;&gt;16 -->
<g id="edge17" class="edge">
<title>15&#45;&gt;16</title>
<path fill="none" stroke="black" stroke-dasharray="5,2" d="M1432,-22C1443.85,-22 1459.78,-22 1473.31,-22"/>
<polygon fill="black" stroke="black" points="1473.52,-25.5 1483.52,-22 1473.52,-18.5 1473.52,-25.5"/>
<text text-anchor="middle" x="1457.6" y="-24.8" font-family="Helvetica,sans-Serif" font-size="9.00">I (1)</text>
</g>
<!-- 17 -->
<g id="node19" class="node">
<title>17</title>
<ellipse fill="#f4f4f4" stroke="black" cx="1594.6" cy="-22" rx="18" ry="18"/>
<text text-anchor="middle" x="1594.6" y="-19.8" font-family="Helvetica,Arial,sans-serif" font-size="9.00">17</text>
</g>
<!-- 16&#45;&gt;17 -->
<g id="edge18" class="edge">
<title>16&#45;&gt;17</title>
<path fill="none" stroke="black" d="M1519.72,-22C1532.81,-22 1551.12,-22 1566.24,-22"/>
<polygon fill="black" stroke="black" points="1566.56,-25.5 1576.56,-22 1566.56,-18.5 1566.56,-25.5"/>
<text text-anchor="middle" x="1548.1" y="-24.8" font-family="Helvetica,sans-Serif" font-size="9.00">U (2)</text>
</g>
<!-- 18 -->
<g id="node20" class="node">
<title>18</title>
<ellipse fill="#f4f4f4" stroke="black" cx="1687.6" cy="-22" rx="18" ry="18"/>
<text text-anchor="middle" x="1687.6" y="-19.8" font-family="Helvetica,Arial,sans-serif" font-size="9.00">18</text>
</g>
<!-- 17&#45;&gt;18 -->
<g id="edge19" class="edge">
<title>17&#45;&gt;18</title>
<path fill="none" stroke="black" d="M1612.72,-22C1625.81,-22 1644.12,-22 1659.24,-22"/>
<polygon fill="black" stroke="black" points="1659.56,-25.5 1669.56,-22 1659.56,-18.5 1659.56,-25.5"/>
<text text-anchor="middle" x="1641.1" y="-24.8" font-family="Helvetica,sans-Serif" font-size="9.00">U (2)</text>
</g>
<!-- 19 -->
<g id="node21" class="node">
<title>19</title>
<ellipse fill="#f4f4f4" stroke="black" cx="1775.6" cy="-22" rx="18" ry="18"/>
<text text-anchor="middle" x="1775.6" y="-19.8" font-family="Helvetica,Arial,sans-serif" font-size="9.00">19</text>
</g>
<!-- 18&#45;&gt;19 -->
<g id="edge20" class="edge">
<title>18&#45;&gt;19</title>
<path fill="none" stroke="black" stroke-dasharray="5,2" d="M1706,-22C1717.85,-22 1733.78,-22 1747.31,-22"/>
<polygon fill="black" stroke="black" points="1747.52,-25.5 1757.52,-22 1747.52,-18.5 1747.52,-25.5"/>
<text text-anchor="middle" x="1731.6" y="-24.8" font-family="Helvetica,sans-Serif" font-size="9.00">I (1)</text>
</g>
<!-- 20 -->
<g id="node22" class="node">
<title>20</title>
<ellipse fill="#f4f4f4" stroke="black" cx="1872.6" cy="-22" rx="18" ry="18"/>
<ellipse fill="none" stroke="black" cx="1872.6" cy="-22" rx="22" ry="22"/>
<text text-anchor="middle" x="1872.6" y="-19.8" font-family="Helvetica,Arial,sans-serif" font-size="9.00">20</text>
</g>
<!-- 19&#45;&gt;20 -->
<g id="edge21" class="edge">
<title>19&#45;&gt;20</title>
<path fill="none" stroke="black" d="M1794.02,-22C1806.91,-22 1824.8,-22 1840.16,-22"/>
<polygon fill="black" stroke="black" points="1840.29,-25.5 1850.29,-22 1840.29,-18.5 1840.29,-25.5"/>
<text text-anchor="middle" x="1822.1" y="-24.8" font-family="Helvetica,sans-Serif" font-size="9.00">U (2)</text>
</g>
</g>
</svg>
