<?xml version="1.0" encoding="UTF-8" standalone="no"?>
<!DOCTYPE svg PUBLIC "-//W3C//DTD SVG 1.1//EN"
 "http://www.w3.org/Graphics/SVG/1.1/DTD/svg11.dtd">
<!-- Generated by graphviz version 2.43.0 (0)
 -->
<!-- Title: seesamu Pages: 1 -->
<svg width="1163pt" height="264pt"
 viewBox="0.00 0.00 1163.00 264.00" xmlns="http://www.w3.org/2000/svg" xmlns:xlink="http://www.w3.org/1999/xlink">
<g id="graph0" class="graph" transform="scale(1 1) rotate(0) translate(4 260)">
<title>seesamu</title>
<polygon fill="white" stroke="transparent" points="-4,4 -4,-260 1159,-260 1159,4 -4,4"/>
<text text-anchor="middle" x="577.5" y="-43.2" font-family="Helvetica,Arial,sans-serif" font-size="11.00">సీసము &#160;· &#160;seesamu &#160;· &#160;upajati</text>
<text text-anchor="middle" x="577.5" y="-31.2" font-family="Helvetica,Arial,sans-serif" font-size="11.00">4 lines per unit, slot pattern: all all all all | laghu laghu laghu laghu</text>
<text text-anchor="middle" x="577.5" y="-19.2" font-family="Helvetica,Arial,sans-serif" font-size="11.00">aksharas per line: 22–36 &#160;· &#160;prāsa: no &#160;· &#160;prāsa&#45;yati: allowed</text>
<text text-anchor="middle" x="577.5" y="-7.2" font-family="Helvetica,Arial,sans-serif" font-size="11.00">followed by: ataveladi / tetagiti</text>
<g id="clust1" class="cluster">
<title>cluster_all</title>
<path fill="none" stroke="#90a4ae" stroke-dasharray="5,2" d="M20,-64C20,-64 1135,-64 1135,-64 1141,-64 1147,-70 1147,-76 1147,-76 1147,-151 1147,-151 1147,-157 1141,-163 1135,-163 1135,-163 20,-163 20,-163 14,-163 8,-157 8,-151 8,-151 8,-76 8,-76 8,-70 14,-64 20,-64"/>
<text text-anchor="middle" x="577.5" y="-71" font-family="Helvetica,Arial,sans-serif" font-size="10.00">slot all &#160;(lines 1, 2, 3, 4)</text>
</g>
<g id="clust2" class="cluster">
<title>cluster_laghu</title>
<path fill="none" stroke="#90a4ae" stroke-dasharray="5,2" d="M20,-171C20,-171 1135,-171 1135,-171 1141,-171 1147,-177 1147,-183 1147,-183 1147,-236 1147,-236 1147,-242 1141,-248 1135,-248 1135,-248 20,-248 20,-248 14,-248 8,-242 8,-236 8,-236 8,-183 8,-183 8,-177 14,-171 20,-171"/>
<text text-anchor="middle" x="577.5" y="-178" font-family="Helvetica,Arial,sans-serif" font-size="10.00">slot laghu &#160;(lines 1, 2, 3, 4)</text>
</g>
<!-- all_start -->
<g id="node1" class="node">
<title>all_start</title>
<ellipse fill="#37474f" stroke="black" cx="22.5" cy="-123" rx="6.5" ry="6.5"/>
</g>
<!-- all_G1 -->
<g id="node3" class="node">
<title>all_G1</title>
<path fill="#f4f4f4" stroke="black" d="M150,-149C150,-149 77,-149 77,-149 71,-149 65,-143 65,-137 65,-137 65,-109 65,-109 65,-103 71,-97 77,-97 77,-97 150,-97 150,-97 156,-97 162,-103 162,-109 162,-109 162,-137 162,-137 162,-143 156,-149 150,-149"/>
<text text-anchor="middle" x="113.5" y="-137" font-family="Helvetica,Arial,sans-serif" font-size="10.00">G1</text>
<text text-anchor="middle" x="113.5" y="-126" font-family="Helvetica,Arial,sans-serif" font-size="10.00">భ UII &#160;· &#160;ర UIU</text>
<text text-anchor="middle" x="113.5" y="-115" font-family="Helvetica,Arial,sans-serif" font-size="10.00">త UUI &#160;· &#160;నల IIII</text>
<text text-anchor="middle" x="113.5" y="-104" font-family="Helvetica,Arial,sans-serif" font-size="10.00">నగ IIIU &#160;· &#160;సల IIUI</text>
</g>
<!-- all_start&#45;&gt;all_G1 -->
<g id="edge1" class="edge">
<title>all_start&#45;&gt;all_G1</title>
<path fill="none" stroke="#607d8b" d="M29.07,-123C35.3,-123 46.09,-123 57.88,-123"/>
<polygon fill="#607d8b" stroke="#607d8b" points="57.91,-125.45 64.91,-123 57.91,-120.55 57.91,-125.45"/>
</g>
<!-- all_end -->
<g id="node2" class="node">
<title>all_end</title>
<ellipse fill="#37474f" stroke="black" cx="1128.5" cy="-123" rx="6.5" ry="6.5"/>
<ellipse fill="none" stroke="black" cx="1128.5" cy="-123" rx="10.5" ry="10.5"/>
</g>
<!-- all_G2 -->
<g id="node4" class="node">
<title>all_G2</title>
<path fill="#f4f4f4" stroke="black" d="M283,-149C283,-149 210,-149 210,-149 204,-149 198,-143 198,-137 198,-137 198,-109 198,-109 198,-103 204,-97 210,-97 210,-97 283,-97 283,-97 289,-97 295,-103 295,-109 295,-109 295,-137 295,-137 295,-143 289,-149 283,-149"/>
<text text-anchor="middle" x="246.5" y="-137" font-family="Helvetica,Arial,sans-serif" font-size="10.00">G2</text>
<text text-anchor="middle" x="246.5" y="-126" font-family="Helvetica,Arial,sans-serif" font-size="10.00">భ UII &#160;· &#160;ర UIU</text>
<text text-anchor="middle" x="246.5" y="-115" font-family="Helvetica,Arial,sans-serif" font-size="10.00">త UUI &#160;· &#160;నల IIII</text>
<text text-anchor="middle" x="246.5" y="-104" font-family="Helvetica,Arial,sans-serif" font-size="10.00">నగ IIIU &#160;· &#160;సల IIUI</text>
</g>
<!-- all_G1&#45;&gt;all_G2 -->
<g id="edge2" class="edge">
<title>all_G1&#45;&gt;all_G2</title>
<path fill="none" stroke="#607d8b" d="M162.16,-123C171.38,-123 181.1,-123 190.52,-123"/>
<polygon fill="#607d8b" stroke="#607d8b" points="190.65,-125.45 197.65,-123 190.65,-120.55 190.65,-125.45"/>
</g>
<!-- all_G3 -->
<g id="node5" class="node">
<title>all_G3</title>
<path fill="#ffe082" stroke="black" d="M422,-154.5C422,-154.5 343,-154.5 343,-154.5 337,-154.5 331,-148.5 331,-142.5 331,-142.5 331,-103.5 331,-103.5 331,-97.5 337,-91.5 343,-91.5 343,-91.5 422,-91.5 422,-91.5 428,-91.5 434,-97.5 434,-103.5 434,-103.5 434,-142.5 434,-142.5 434,-148.5 428,-154.5 422,-154.5"/>
<text text-anchor="middle" x="382.5" y="-142.5" font-family="Helvetica,Arial,sans-serif" font-size="10.00">G3</text>
<text text-anchor="middle" x="382.5" y="-131.5" font-family="Helvetica,Arial,sans-serif" font-size="10.00">భ UII &#160;· &#160;ర UIU</text>
<text text-anchor="middle" x="382.5" y="-120.5" font-family="Helvetica,Arial,sans-serif" font-size="10.00">త UUI &#160;· &#160;నల IIII</text>
<text text-anchor="middle" x="382.5" y="-109.5" font-family="Helvetica,Arial,sans-serif" font-size="10.00">నగ IIIU &#160;· &#160;సల IIUI</text>
<text text-anchor="middle" x="382.5" y="-98.5" font-family="Helvetica,Arial,sans-serif" font-size="10.00">◆ యతి (gana start)</text>
</g>
<!-- all_G2&#45;&gt;all_G3 -->
<g id="edge3" class="edge">
<title>all_G2&#45;&gt;all_G3</title>
<path fill="none" stroke="#607d8b" d="M295.12,-123C304.35,-123 314.12,-123 323.64,-123"/>
<polygon fill="#607d8b" stroke="#607d8b" points="323.86,-125.45 330.86,-123 323.86,-120.55 323.86,-125.45"/>
</g>
<!-- all_G4 -->
<g id="node6" class="node">
<title>all_G4</title>
<path fill="#f4f4f4" stroke="black" d="M555,-149C555,-149 482,-149 482,-149 476,-149 470,-143 470,-137 470,-137 470,-109 470,-109 470,-103 476,-97 482,-97 482,-97 555,-97 555,-97 561,-97 567,-103 567,-109 567,-109 567,-137 567,-137 567,-143 561,-149 555,-149"/>
<text text-anchor="middle" x="518.5" y="-137" font-family="Helvetica,Arial,sans-serif" font-size="10.00">G4</text>
<text text-anchor="middle" x="518.5" y="-126" font-family="Helvetica,Arial,sans-serif" font-size="10.00">భ UII &#160;· &#160;ర UIU</text>
<text text-anchor="middle" x="518.5" y="-115" font-family="Helvetica,Arial,sans-serif" font-size="10.00">త UUI &#160;· &#160;నల IIII</text>
<text text-anchor="middle" x="518.5" y="-104" font-family="Helvetica,Arial,sans-serif" font-size="10.00">నగ IIIU &#160;· &#160;సల IIUI</text>
</g>
<!-- all_G3&#45;&gt;all_G4 -->
<g id="edge4" class="edge">
<title>all_G3&#45;&gt;all_G4</title>
<path fill="none" stroke="#607d8b" d="M434.16,-123C443.49,-123 453.27,-123 462.72,-123"/>
<polygon fill="#607d8b" stroke="#607d8b" points="462.86,-125.45 469.86,-123 462.86,-120.55 462.86,-125.45"/>
</g>
<!-- all_G5 -->
<g id="node7" class="node">
<title>all_G5</title>
<path fill="#f4f4f4" stroke="black" d="M688,-149C688,-149 615,-149 615,-149 609,-149 603,-143 603,-137 603,-137 603,-109 603,-109 603,-103 609,-97 615,-97 615,-97 688,-97 688,-97 694,-97 700,-103 700,-109 700,-109 700,-137 700,-137 700,-143 694,-149 688,-149"/>
<text text-anchor="middle" x="651.5" y="-137" font-family="Helvetica,Arial,sans-serif" font-size="10.00">G5</text>
<text text-anchor="middle" x="651.5" y="-126" font-family="Helvetica,Arial,sans-serif" font-size="10.00">భ UII &#160;· &#160;ర UIU</text>
<text text-anchor="middle" x="651.5" y="-115" font-family="Helvetica,Arial,sans-serif" font-size="10.00">త UUI &#160;· &#160;నల IIII</text>
<text text-anchor="middle" x="651.5" y="-104" font-family="Helvetica,Arial,sans-serif" font-size="10.00">నగ IIIU &#160;· &#160;సల IIUI</text>
</g>
<!-- all_G4&#45;&gt;all_G5 -->
<g id="edge5" class="edge">
<title>all_G4&#45;&gt;all_G5</title>
<path fill="none" stroke="#607d8b" d="M567.16,-123C576.38,-123 586.1,-123 595.52,-123"/>
<polygon fill="#607d8b" stroke="#607d8b" points="595.65,-125.45 602.65,-123 595.65,-120.55 595.65,-125.45"/>
</g>
<!-- all_G6 -->
<g id="node8" class="node">
<title>all_G6</title>
<path fill="#f4f4f4" stroke="black" d="M821,-149C821,-149 748,-149 748,-149 742,-149 736,-143 736,-137 736,-137 736,-109 736,-109 736,-103 742,-97 748,-97 748,-97 821,-97 821,-97 827,-97 833,-103 833,-109 833,-109 833,-137 833,-137 833,-143 827,-149 821,-149"/>
<text text-anchor="middle" x="784.5" y="-137" font-family="Helvetica,Arial,sans-serif" font-size="10.00">G6</text>
<text text-anchor="middle" x="784.5" y="-126" font-family="Helvetica,Arial,sans-serif" font-size="10.00">భ UII &#160;· &#160;ర UIU</text>
<text text-anchor="middle" x="784.5" y="-115" font-family="Helvetica,Arial,sans-serif" font-size="10.00">త UUI &#160;· &#160;నల IIII</text>
<text text-anchor="middle" x="784.5" y="-104" font-family="Helvetica,Arial,sans-serif" font-size="10.00">నగ IIIU &#160;· &#160;సల IIUI</text>
</g>
<!-- all_G5&#45;&gt;all_G6 -->
<g id="edge6" class="edge">
<title>all_G5&#45;&gt;all_G6</title>
<path fill="none" stroke="#607d8b" d="M700.16,-123C709.38,-123 719.1,-123 728.52,-123"/>
<polygon fill="#607d8b" stroke="#607d8b" points="728.65,-125.45 735.65,-123 728.65,-120.55 728.65,-125.45"/>
</g>
<!-- all_G7 -->
<g id="node9" class="node">
<title>all_G7</title>
<path fill="#ffe082" stroke="black" d="M960,-143.5C960,-143.5 881,-143.5 881,-143.5 875,-143.5 869,-137.5 869,-131.5 869,-131.5 869,-114.5 869,-114.5 869,-108.5 875,-102.5 881,-102.5 881,-102.5 960,-102.5 960,-102.5 966,-102.5 972,-108.5 972,-114.5 972,-114.5 972,-131.5 972,-131.5 972,-137.5 966,-143.5 960,-143.5"/>
<text text-anchor="middle" x="920.5" y="-131.5" font-family="Helvetica,Arial,sans-serif" font-size="10.00">G7</text>
<text text-anchor="middle" x="920.5" y="-120.5" font-family="Helvetica,Arial,sans-serif" font-size="10.00">న III &#160;· &#160;హ UI</text>
<text text-anchor="middle" x="920.5" y="-109.5" font-family="Helvetica,Arial,sans-serif" font-size="10.00">◆ యతి (gana start)</text>
</g>
<!-- all_G6&#45;&gt;all_G7 -->
<g id="edge7" class="edge">
<title>all_G6&#45;&gt;all_G7</title>
<path fill="none" stroke="#607d8b" d="M833.12,-123C842.35,-123 852.12,-123 861.64,-123"/>
<polygon fill="#607d8b" stroke="#607d8b" points="861.86,-125.45 868.86,-123 861.86,-120.55 861.86,-125.45"/>
</g>
<!-- all_G8 -->
<g id="node10" class="node">
<title>all_G8</title>
<path fill="#f4f4f4" stroke="black" d="M1070,-141C1070,-141 1020,-141 1020,-141 1014,-141 1008,-135 1008,-129 1008,-129 1008,-117 1008,-117 1008,-111 1014,-105 1020,-105 1020,-105 1070,-105 1070,-105 1076,-105 1082,-111 1082,-117 1082,-117 1082,-129 1082,-129 1082,-135 1076,-141 1070,-141"/>
<text text-anchor="middle" x="1045" y="-126" font-family="Helvetica,Arial,sans-serif" font-size="10.00">G8</text>
<text text-anchor="middle" x="1045" y="-115" font-family="Helvetica,Arial,sans-serif" font-size="10.00">న III &#160;· &#160;హ UI</text>
</g>
<!-- all_G7&#45;&gt;all_G8 -->
<g id="edge8" class="edge">
<title>all_G7&#45;&gt;all_G8</title>
<path fill="none" stroke="#607d8b" d="M972.03,-123C981.5,-123 991.31,-123 1000.54,-123"/>
<polygon fill="#607d8b" stroke="#607d8b" points="1000.8,-125.45 1007.8,-123 1000.8,-120.55 1000.8,-125.45"/>
</g>
<!-- all_G8&#45;&gt;all_end -->
<g id="edge9" class="edge">
<title>all_G8&#45;&gt;all_end</title>
<path fill="none" stroke="#607d8b" d="M1082.46,-123C1092.35,-123 1102.58,-123 1110.79,-123"/>
<polygon fill="#607d8b" stroke="#607d8b" points="1110.96,-125.45 1117.96,-123 1110.96,-120.55 1110.96,-125.45"/>
</g>
<!-- laghu_start -->
<g id="node11" class="node">
<title>laghu_start</title>
<ellipse fill="#37474f" stroke="black" cx="22.5" cy="-219" rx="6.5" ry="6.5"/>
</g>
<!-- laghu_G1 -->
<g id="node13" class="node">
<title>laghu_G1</title>
<path fill="#e3f2fd" stroke="black" d="M129,-237C129,-237 98,-237 98,-237 92,-237 86,-231 86,-225 86,-225 86,-213 86,-213 86,-207 92,-201 98,-201 98,-201 129,-201 129,-201 135,-201 141,-207 141,-213 141,-213 141,-225 141,-225 141,-231 135,-237 129,-237"/>
<text text-anchor="middle" x="113.5" y="-222" font-family="Helvetica,Arial,sans-serif" font-size="10.00">G1</text>
<text text-anchor="middle" x="113.5" y="-211" font-family="Helvetica,Arial,sans-serif" font-size="10.00">నలల IIIII</text>
</g>
<!-- laghu_start&#45;&gt;laghu_G1 -->
<g id="edge10" class="edge">
<title>laghu_start&#45;&gt;laghu_G1</title>
<path fill="none" stroke="#607d8b" d="M29.07,-219C38.88,-219 59.96,-219 78.47,-219"/>
<polygon fill="#607d8b" stroke="#607d8b" points="78.68,-221.45 85.68,-219 78.68,-216.55 78.68,-221.45"/>
</g>
<!-- laghu_end -->
<g id="node12" class="node">
<title>laghu_end</title>
<ellipse fill="#37474f" stroke="black" cx="1128.5" cy="-219" rx="6.5" ry="6.5"/>
<ellipse fill="none" stroke="black" cx="1128.5" cy="-219" rx="10.5" ry="10.5"/>
</g>
<!-- laghu_G2 -->
<g id="node14" class="node">
<title>laghu_G2</title>
<path fill="#e3f2fd" stroke="black" d="M262,-237C262,-237 231,-237 231,-237 225,-237 219,-231 219,-225 219,-225 219,-213 219,-213 219,-207 225,-201 231,-201 231,-201 262,-201 262,-201 268,-201 274,-207 274,-213 274,-213 274,-225 274,-225 274,-231 268,-237 262,-237"/>
<text text-anchor="middle" x="246.5" y="-222" font-family="Helvetica,Arial,sans-serif" font-size="10.00">G2</text>
<text text-anchor="middle" x="246.5" y="-211" font-family="Helvetica,Arial,sans-serif" font-size="10.00">నలల IIIII</text>
</g>
<!-- laghu_G1&#45;&gt;laghu_G2 -->
<g id="edge11" class="edge">
<title>laghu_G1&#45;&gt;laghu_G2</title>
<path fill="none" stroke="#607d8b" d="M141.01,-219C161.3,-219 189.42,-219 211.39,-219"/>
<polygon fill="#607d8b" stroke="#607d8b" points="211.58,-221.45 218.58,-219 211.58,-216.55 211.58,-221.45"/>
</g>
<!-- laghu_G3 -->
<g id="node15" class="node">
<title>laghu_G3</title>
<path fill="#ffe082" stroke="black" d="M422,-239.5C422,-239.5 343,-239.5 343,-239.5 337,-239.5 331,-233.5 331,-227.5 331,-227.5 331,-210.5 331,-210.5 331,-204.5 337,-198.5 343,-198.5 343,-198.5 422,-198.5 422,-198.5 428,-198.5 434,-204.5 434,-210.5 434,-210.5 434,-227.5 434,-227.5 434,-233.5 428,-239.5 422,-239.5"/>
<text text-anchor="middle" x="382.5" y="-227.5" font-family="Helvetica,Arial,sans-serif" font-size="10.00">G3</text>
<text text-anchor="middle" x="382.5" y="-216.5" font-family="Helvetica,Arial,sans-serif" font-size="10.00">నలల IIIII</text>
<text text-anchor="middle" x="382.5" y="-205.5" font-family="Helvetica,Arial,sans-serif" font-size="10.00">◆ యతి (gana start)</text>
</g>
<!-- laghu_G2&#45;&gt;laghu_G3 -->
<g id="edge12" class="edge">
<title>laghu_G2&#45;&gt;laghu_G3</title>
<path fill="none" stroke="#607d8b" d="M274.29,-219C288.46,-219 306.44,-219 323.6,-219"/>
<polygon fill="#607d8b" stroke="#607d8b" points="323.89,-221.45 330.89,-219 323.89,-216.55 323.89,-221.45"/>
</g>
<!-- laghu_G4 -->
<g id="node16" class="node">
<title>laghu_G4</title>
<path fill="#e3f2fd" stroke="black" d="M534,-237C534,-237 503,-237 503,-237 497,-237 491,-231 491,-225 491,-225 491,-213 491,-213 491,-207 497,-201 503,-201 503,-201 534,-201 534,-201 540,-201 546,-207 546,-213 546,-213 546,-225 546,-225 546,-231 540,-237 534,-237"/>
<text text-anchor="middle" x="518.5" y="-222" font-family="Helvetica,Arial,sans-serif" font-size="10.00">G4</text>
<text text-anchor="middle" x="518.5" y="-211" font-family="Helvetica,Arial,sans-serif" font-size="10.00">నలల IIIII</text>
</g>
<!-- laghu_G3&#45;&gt;laghu_G4 -->
<g id="edge13" class="edge">
<title>laghu_G3&#45;&gt;laghu_G4</title>
<path fill="none" stroke="#607d8b" d="M434.16,-219C450.72,-219 468.7,-219 483.7,-219"/>
<polygon fill="#607d8b" stroke="#607d8b" points="483.81,-221.45 490.81,-219 483.81,-216.55 483.81,-221.45"/>
</g>
<!-- laghu_G5 -->
<g id="node17" class="node">
<title>laghu_G5</title>
<path fill="#e3f2fd" stroke="black" d="M667,-237C667,-237 636,-237 636,-237 630,-237 624,-231 624,-225 624,-225 624,-213 624,-213 624,-207 630,-201 636,-201 636,-201 667,-201 667,-201 673,-201 679,-207 679,-213 679,-213 679,-225 679,-225 679,-231 673,-237 667,-237"/>
<text text-anchor="middle" x="651.5" y="-222" font-family="Helvetica,Arial,sans-serif" font-size="10.00">G5</text>
<text text-anchor="middle" x="651.5" y="-211" font-family="Helvetica,Arial,sans-serif" font-size="10.00">నలల IIIII</text>
</g>
<!-- laghu_G4&#45;&gt;laghu_G5 -->
<g id="edge14" class="edge">
<title>laghu_G4&#45;&gt;laghu_G5</title>
<path fill="none" stroke="#607d8b" d="M546.01,-219C566.3,-219 594.42,-219 616.39,-219"/>
<polygon fill="#607d8b" stroke="#607d8b" points="616.58,-221.45 623.58,-219 616.58,-216.55 616.58,-221.45"/>
</g>
<!-- laghu_G6 -->
<g id="node18" class="node">
<title>laghu_G6</title>
<path fill="#e3f2fd" stroke="black" d="M800,-237C800,-237 769,-237 769,-237 763,-237 757,-231 757,-225 757,-225 757,-213 757,-213 757,-207 763,-201 769,-201 769,-201 800,-201 800,-201 806,-201 812,-207 812,-213 812,-213 812,-225 812,-225 812,-231 806,-237 800,-237"/>
<text text-anchor="middle" x="784.5" y="-222" font-family="Helvetica,Arial,sans-serif" font-size="10.00">G6</text>
<text text-anchor="middle" x="784.5" y="-211" font-family="Helvetica,Arial,sans-serif" font-size="10.00">నలల IIIII</text>
</g>
<!-- laghu_G5&#45;&gt;laghu_G6 -->
<g id="edge15" class="edge">
<title>laghu_G5&#45;&gt;laghu_G6</title>
<path fill="none" stroke="#607d8b" d="M679.01,-219C699.3,-219 727.42,-219 749.39,-219"/>
<polygon fill="#607d8b" stroke="#607d8b" points="749.58,-221.45 756.58,-219 749.58,-216.55 749.58,-221.45"/>
</g>
<!-- laghu_G7 -->
<g id="node19" class="node">
<title>laghu_G7</title>
<path fill="#ffe082" stroke="black" d="M960,-239.5C960,-239.5 881,-239.5 881,-239.5 875,-239.5 869,-233.5 869,-227.5 869,-227.5 869,-210.5 869,-210.5 869,-204.5 875,-198.5 881,-198.5 881,-198.5 960,-198.5 960,-198.5 966,-198.5 972,-204.5 972,-210.5 972,-210.5 972,-227.5 972,-227.5 972,-233.5 966,-239.5 960,-239.5"/>
<text text-anchor="middle" x="920.5" y="-227.5" font-family="Helvetica,Arial,sans-serif" font-size="10.00">G7</text>
<text text-anchor="middle" x="920.5" y="-216.5" font-family="Helvetica,Arial,sans-serif" font-size="10.00">న III</text>
<text text-anchor="middle" x="920.5" y="-205.5" font-family="Helvetica,Arial,sans-serif" font-size="10.00">◆ యతి (gana start)</text>
</g>
<!-- laghu_G6&#45;&gt;laghu_G7 -->
<g id="edge16" class="edge">
<title>laghu_G6&#45;&gt;laghu_G7</title>
<path fill="none" stroke="#607d8b" d="M812.29,-219C826.46,-219 844.44,-219 861.6,-219"/>
<polygon fill="#607d8b" stroke="#607d8b" points="861.89,-221.45 868.89,-219 861.89,-216.55 861.89,-221.45"/>
</g>
<!-- laghu_G8 -->
<g id="node20" class="node">
<title>laghu_G8</title>
<path fill="#e3f2fd" stroke="black" d="M1060,-237C1060,-237 1030,-237 1030,-237 1024,-237 1018,-231 1018,-225 1018,-225 1018,-213 1018,-213 1018,-207 1024,-201 1030,-201 1030,-201 1060,-201 1060,-201 1066,-201 1072,-207 1072,-213 1072,-213 1072,-225 1072,-225 1072,-231 1066,-237 1060,-237"/>
<text text-anchor="middle" x="1045" y="-222" font-family="Helvetica,Arial,sans-serif" font-size="10.00">G8</text>
<text text-anchor="middle" x="1045" y="-211" font-family="Helvetica,Arial,sans-serif" font-size="10.00">న III</text>
</g>
<!-- laghu_G7&#45;&gt;laghu_G8 -->
<g id="edge17" class="edge">
<title>laghu_G7&#45;&gt;laghu_G8</title>
<path fill="none" stroke="#607d8b" d="M972.03,-219C985.02,-219 998.68,-219 1010.56,-219"/>
<polygon fill="#607d8b" stroke="#607d8b" points="1010.7,-221.45 1017.7,-219 1010.7,-216.55 1010.7,-221.45"/>
</g>
<!-- laghu_G8&#45;&gt;laghu_end -->
<g id="edge18" class="edge">
<title>laghu_G8&#45;&gt;laghu_end</title>
<path fill="none" stroke="#607d8b" d="M1072.24,-219C1084.94,-219 1099.81,-219 1110.92,-219"/>
<polygon fill="#607d8b" stroke="#607d8b" points="1110.94,-221.45 1117.94,-219 1110.94,-216.55 1110.94,-221.45"/>
</g>
</g>
</svg>
