<?xml version="1.0" encoding="UTF-8" standalone="no"?>
<!DOCTYPE svg PUBLIC "-//W3C//DTD SVG 1.1//EN"
 "http://www.w3.org/Graphics/SVG/1.1/DTD/svg11.dtd">
<!-- Generated by graphviz version 2.43.0 (0)
 -->
<!-- Title: sragvini Pages: 1 -->
<svg width="525pt" height="145pt"
 viewBox="0.00 0.00 525.00 145.00" xmlns="http://www.w3.org/2000/svg" xmlns:xlink="http://www.w3.org/1999/xlink">
<g id="graph0" class="graph" transform="scale(1 1) rotate(0) translate(4 141)">
<title>sragvini</title>
<polygon fill="white" stroke="transparent" points="-4,4 -4,-141 521,-141 521,4 -4,4"/>
<text text-anchor="middle" x="258.5" y="-31.2" font-family="Helvetica,Arial,sans-serif" font-size="11.00">స్రగ్విణి &#160;· &#160;sragvini &#160;· &#160;vrutta</text>
<text text-anchor="middle" x="258.5" y="-19.2" font-family="Helvetica,Arial,sans-serif" font-size="11.00">4 lines per unit, slot pattern: all all all all</text>
<text text-anchor="middle" x="258.5" y="-7.2" font-family="Helvetica,Arial,sans-serif" font-size="11.00">aksharas per line: 12 &#160;· &#160;prāsa: yes &#160;· &#160;prāsa&#45;yati: no</text>
<g id="clust1" class="cluster">
<title>cluster_all</title>
<path fill="none" stroke="#90a4ae" stroke-dasharray="5,2" d="M20,-52C20,-52 497,-52 497,-52 503,-52 509,-58 509,-64 509,-64 509,-117 509,-117 509,-123 503,-129 497,-129 497,-129 20,-129 20,-129 14,-129 8,-123 8,-117 8,-117 8,-64 8,-64 8,-58 14,-52 20,-52"/>
<text text-anchor="middle" x="258.5" y="-59" font-family="Helvetica,Arial,sans-serif" font-size="10.00">slot all &#160;(lines 1, 2, 3, 4)</text>
</g>
<!-- all_start -->
<g id="node1" class="node">
<title>all_start</title>
<ellipse fill="#37474f" stroke="black" cx="22.5" cy="-100" rx="6.5" ry="6.5"/>
</g>
<!-- all_G1 -->
<g id="node3" class="node">
<title>all_G1</title>
<path fill="#e3f2fd" stroke="black" d="M107,-118C107,-118 77,-118 77,-118 71,-118 65,-112 65,-106 65,-106 65,-94 65,-94 65,-88 71,-82 77,-82 77,-82 107,-82 107,-82 113,-82 119,-88 119,-94 119,-94 119,-106 119,-106 119,-112 113,-118 107,-118"/>
<text text-anchor="middle" x="92" y="-103" font-family="Helvetica,Arial,sans-serif" font-size="10.00">G1</text>
<text text-anchor="middle" x="92" y="-92" font-family="Helvetica,Arial,sans-serif" font-size="10.00">ర UIU</text>
</g>
<!-- all_start&#45;&gt;all_G1 -->
<g id="edge1" class="edge">
<title>all_start&#45;&gt;all_G1</title>
<path fill="none" stroke="#607d8b" d="M29.26,-100C35.74,-100 46.82,-100 57.82,-100"/>
<polygon fill="#607d8b" stroke="#607d8b" points="57.99,-102.45 64.99,-100 57.99,-97.55 57.99,-102.45"/>
</g>
<!-- all_end -->
<g id="node2" class="node">
<title>all_end</title>
<ellipse fill="#37474f" stroke="black" cx="490.5" cy="-100" rx="6.5" ry="6.5"/>
<ellipse fill="none" stroke="black" cx="490.5" cy="-100" rx="10.5" ry="10.5"/>
</g>
<!-- all_G2 -->
<g id="node4" class="node">
<title>all_G2</title>
<path fill="#e3f2fd" stroke="black" d="M197,-118C197,-118 167,-118 167,-118 161,-118 155,-112 155,-106 155,-106 155,-94 155,-94 155,-88 161,-82 167,-82 167,-82 197,-82 197,-82 203,-82 209,-88 209,-94 209,-94 209,-106 209,-106 209,-112 203,-118 197,-118"/>
<text text-anchor="middle" x="182" y="-103" font-family="Helvetica,Arial,sans-serif" font-size="10.00">G2</text>
<text text-anchor="middle" x="182" y="-92" font-family="Helvetica,Arial,sans-serif" font-size="10.00">ర UIU</text>
</g>
<!-- all_G1&#45;&gt;all_G2 -->
<g id="edge2" class="edge">
<title>all_G1&#45;&gt;all_G2</title>
<path fill="none" stroke="#607d8b" d="M119.4,-100C128.36,-100 138.48,-100 147.89,-100"/>
<polygon fill="#607d8b" stroke="#607d8b" points="147.92,-102.45 154.92,-100 147.92,-97.55 147.92,-102.45"/>
</g>
<!-- all_G3 -->
<g id="node5" class="node">
<title>all_G3</title>
<path fill="#ffe082" stroke="black" d="M342,-120.5C342,-120.5 257,-120.5 257,-120.5 251,-120.5 245,-114.5 245,-108.5 245,-108.5 245,-91.5 245,-91.5 245,-85.5 251,-79.5 257,-79.5 257,-79.5 342,-79.5 342,-79.5 348,-79.5 354,-85.5 354,-91.5 354,-91.5 354,-108.5 354,-108.5 354,-114.5 348,-120.5 342,-120.5"/>
<text text-anchor="middle" x="299.5" y="-108.5" font-family="Helvetica,Arial,sans-serif" font-size="10.00">G3</text>
<text text-anchor="middle" x="299.5" y="-97.5" font-family="Helvetica,Arial,sans-serif" font-size="10.00">ర UIU</text>
<text text-anchor="middle" x="299.5" y="-86.5" font-family="Helvetica,Arial,sans-serif" font-size="10.00">◆ యతి @ akshara 7</text>
</g>
<!-- all_G2&#45;&gt;all_G3 -->
<g id="edge3" class="edge">
<title>all_G2&#45;&gt;all_G3</title>
<path fill="none" stroke="#607d8b" d="M209.21,-100C217.67,-100 227.44,-100 237.34,-100"/>
<polygon fill="#607d8b" stroke="#607d8b" points="237.55,-102.45 244.55,-100 237.55,-97.55 237.55,-102.45"/>
</g>
<!-- all_G4 -->
<g id="node6" class="node">
<title>all_G4</title>
<path fill="#e3f2fd" stroke="black" d="M432,-118C432,-118 402,-118 402,-118 396,-118 390,-112 390,-106 390,-106 390,-94 390,-94 390,-88 396,-82 402,-82 402,-82 432,-82 432,-82 438,-82 444,-88 444,-94 444,-94 444,-106 444,-106 444,-112 438,-118 432,-118"/>
<text text-anchor="middle" x="417" y="-103" font-family="Helvetica,Arial,sans-serif" font-size="10.00">G4</text>
<text text-anchor="middle" x="417" y="-92" font-family="Helvetica,Arial,sans-serif" font-size="10.00">ర UIU</text>
</g>
<!-- all_G3&#45;&gt;all_G4 -->
<g id="edge4" class="edge">
<title>all_G3&#45;&gt;all_G4</title>
<path fill="none" stroke="#607d8b" d="M354.19,-100C363.86,-100 373.67,-100 382.55,-100"/>
<polygon fill="#607d8b" stroke="#607d8b" points="382.77,-102.45 389.77,-100 382.77,-97.55 382.77,-102.45"/>
</g>
<!-- all_G4&#45;&gt;all_end -->
<g id="edge5" class="edge">
<title>all_G4&#45;&gt;all_end</title>
<path fill="none" stroke="#607d8b" d="M444.22,-100C453.74,-100 464.23,-100 472.72,-100"/>
<polygon fill="#607d8b" stroke="#607d8b" points="472.86,-102.45 479.86,-100 472.86,-97.55 472.86,-102.45"/>
</g>
</g>
</svg>
