<?xml version="1.0" encoding="UTF-8" standalone="no"?>
<!DOCTYPE svg PUBLIC "-//W3C//DTD SVG 1.1//EN"
 "http://www.w3.org/Graphics/SVG/1.1/DTD/svg11.dtd">
<!-- Generated by graphviz version 2.43.0 (0)
 -->
<!-- Title: utsahamu Pages: 1 -->
<svg width="1001pt" height="145pt"
 viewBox="0.00 0.00 1001.00 145.00" xmlns="http://www.w3.org/2000/svg" xmlns:xlink="http://www.w3.org/1999/xlink">
<g id="graph0" class="graph" transform="scale(1 1) rotate(0) translate(4 141)">
<title>utsahamu</title>
<polygon fill="white" stroke="transparent" points="-4,4 -4,-141 997,-141 997,4 -4,4"/>
<text text-anchor="middle" x="496.5" y="-31.2" font-family="Helvetica,Arial,sans-serif" font-size="11.00">ఉత్సాహము &#160;· &#160;utsahamu &#160;· &#160;jati</text>
<text text-anchor="middle" x="496.5" y="-19.2" font-family="Helvetica,Arial,sans-serif" font-size="11.00">4 lines per unit, slot pattern: all all all all</text>
<text text-anchor="middle" x="496.5" y="-7.2" font-family="Helvetica,Arial,sans-serif" font-size="11.00">aksharas per line: 15–22 &#160;· &#160;prāsa: yes &#160;· &#160;prāsa&#45;yati: no</text>
<g id="clust1" class="cluster">
<title>cluster_all</title>
<path fill="none" stroke="#90a4ae" stroke-dasharray="5,2" d="M20,-52C20,-52 973,-52 973,-52 979,-52 985,-58 985,-64 985,-64 985,-117 985,-117 985,-123 979,-129 973,-129 973,-129 20,-129 20,-129 14,-129 8,-123 8,-117 8,-117 8,-64 8,-64 8,-58 14,-52 20,-52"/>
<text text-anchor="middle" x="496.5" y="-59" font-family="Helvetica,Arial,sans-serif" font-size="10.00">slot all &#160;(lines 1, 2, 3, 4)</text>
</g>
<!-- all_start -->
<g id="node1" class="node">
<title>all_start</title>
<ellipse fill="#37474f" stroke="black" cx="22.5" cy="-100" rx="6.5" ry="6.5"/>
</g>
<!-- all_G1 -->
<g id="node3" class="node">
<title>all_G1</title>
<path fill="#f4f4f4" stroke="black" d="M127,-118C127,-118 77,-118 77,-118 71,-118 65,-112 65,-106 65,-106 65,-94 65,-94 65,-88 71,-82 77,-82 77,-82 127,-82 127,-82 133,-82 139,-88 139,-94 139,-94 139,-106 139,-106 139,-112 133,-118 127,-118"/>
<text text-anchor="middle" x="102" y="-103" font-family="Helvetica,Arial,sans-serif" font-size="10.00">G1</text>
<text text-anchor="middle" x="102" y="-92" font-family="Helvetica,Arial,sans-serif" font-size="10.00">న III &#160;· &#160;హ UI</text>
</g>
<!-- all_start&#45;&gt;all_G1 -->
<g id="edge1" class="edge">
<title>all_start&#45;&gt;all_G1</title>
<path fill="none" stroke="#607d8b" d="M29.07,-100C35.4,-100 46.33,-100 57.79,-100"/>
<polygon fill="#607d8b" stroke="#607d8b" points="57.95,-102.45 64.95,-100 57.95,-97.55 57.95,-102.45"/>
</g>
<!-- all_end -->
<g id="node2" class="node">
<title>all_end</title>
<ellipse fill="#37474f" stroke="black" cx="966.5" cy="-100" rx="6.5" ry="6.5"/>
<ellipse fill="none" stroke="black" cx="966.5" cy="-100" rx="10.5" ry="10.5"/>
</g>
<!-- all_G2 -->
<g id="node4" class="node">
<title>all_G2</title>
<path fill="#f4f4f4" stroke="black" d="M237,-118C237,-118 187,-118 187,-118 181,-118 175,-112 175,-106 175,-106 175,-94 175,-94 175,-88 181,-82 187,-82 187,-82 237,-82 237,-82 243,-82 249,-88 249,-94 249,-94 249,-106 249,-106 249,-112 243,-118 237,-118"/>
<text text-anchor="middle" x="212" y="-103" font-family="Helvetica,Arial,sans-serif" font-size="10.00">G2</text>
<text text-anchor="middle" x="212" y="-92" font-family="Helvetica,Arial,sans-serif" font-size="10.00">న III &#160;· &#160;హ UI</text>
</g>
<!-- all_G1&#45;&gt;all_G2 -->
<g id="edge2" class="edge">
<title>all_G1&#45;&gt;all_G2</title>
<path fill="none" stroke="#607d8b" d="M139.26,-100C148.35,-100 158.18,-100 167.57,-100"/>
<polygon fill="#607d8b" stroke="#607d8b" points="167.65,-102.45 174.65,-100 167.65,-97.55 167.65,-102.45"/>
</g>
<!-- all_G3 -->
<g id="node5" class="node">
<title>all_G3</title>
<path fill="#f4f4f4" stroke="black" d="M347,-118C347,-118 297,-118 297,-118 291,-118 285,-112 285,-106 285,-106 285,-94 285,-94 285,-88 291,-82 297,-82 297,-82 347,-82 347,-82 353,-82 359,-88 359,-94 359,-94 359,-106 359,-106 359,-112 353,-118 347,-118"/>
<text text-anchor="middle" x="322" y="-103" font-family="Helvetica,Arial,sans-serif" font-size="10.00">G3</text>
<text text-anchor="middle" x="322" y="-92" font-family="Helvetica,Arial,sans-serif" font-size="10.00">న III &#160;· &#160;హ UI</text>
</g>
<!-- all_G2&#45;&gt;all_G3 -->
<g id="edge3" class="edge">
<title>all_G2&#45;&gt;all_G3</title>
<path fill="none" stroke="#607d8b" d="M249.26,-100C258.35,-100 268.18,-100 277.57,-100"/>
<polygon fill="#607d8b" stroke="#607d8b" points="277.65,-102.45 284.65,-100 277.65,-97.55 277.65,-102.45"/>
</g>
<!-- all_G4 -->
<g id="node6" class="node">
<title>all_G4</title>
<path fill="#f4f4f4" stroke="black" d="M457,-118C457,-118 407,-118 407,-118 401,-118 395,-112 395,-106 395,-106 395,-94 395,-94 395,-88 401,-82 407,-82 407,-82 457,-82 457,-82 463,-82 469,-88 469,-94 469,-94 469,-106 469,-106 469,-112 463,-118 457,-118"/>
<text text-anchor="middle" x="432" y="-103" font-family="Helvetica,Arial,sans-serif" font-size="10.00">G4</text>
<text text-anchor="middle" x="432" y="-92" font-family="Helvetica,Arial,sans-serif" font-size="10.00">న III &#160;· &#160;హ UI</text>
</g>
<!-- all_G3&#45;&gt;all_G4 -->
<g id="edge4" class="edge">
<title>all_G3&#45;&gt;all_G4</title>
<path fill="none" stroke="#607d8b" d="M359.26,-100C368.35,-100 378.18,-100 387.57,-100"/>
<polygon fill="#607d8b" stroke="#607d8b" points="387.65,-102.45 394.65,-100 387.65,-97.55 387.65,-102.45"/>
</g>
<!-- all_G5 -->
<g id="node7" class="node">
<title>all_G5</title>
<path fill="#ffe082" stroke="black" d="M596,-120.5C596,-120.5 517,-120.5 517,-120.5 511,-120.5 505,-114.5 505,-108.5 505,-108.5 505,-91.5 505,-91.5 505,-85.5 511,-79.5 517,-79.5 517,-79.5 596,-79.5 596,-79.5 602,-79.5 608,-85.5 608,-91.5 608,-91.5 608,-108.5 608,-108.5 608,-114.5 602,-120.5 596,-120.5"/>
<text text-anchor="middle" x="556.5" y="-108.5" font-family="Helvetica,Arial,sans-serif" font-size="10.00">G5</text>
<text text-anchor="middle" x="556.5" y="-97.5" font-family="Helvetica,Arial,sans-serif" font-size="10.00">న III &#160;· &#160;హ UI</text>
<text text-anchor="middle" x="556.5" y="-86.5" font-family="Helvetica,Arial,sans-serif" font-size="10.00">◆ యతి (gana start)</text>
</g>
<!-- all_G4&#45;&gt;all_G5 -->
<g id="edge5" class="edge">
<title>all_G4&#45;&gt;all_G5</title>
<path fill="none" stroke="#607d8b" d="M469.09,-100C478.06,-100 487.91,-100 497.64,-100"/>
<polygon fill="#607d8b" stroke="#607d8b" points="497.69,-102.45 504.69,-100 497.69,-97.55 497.69,-102.45"/>
</g>
<!-- all_G6 -->
<g id="node8" class="node">
<title>all_G6</title>
<path fill="#f4f4f4" stroke="black" d="M706,-118C706,-118 656,-118 656,-118 650,-118 644,-112 644,-106 644,-106 644,-94 644,-94 644,-88 650,-82 656,-82 656,-82 706,-82 706,-82 712,-82 718,-88 718,-94 718,-94 718,-106 718,-106 718,-112 712,-118 706,-118"/>
<text text-anchor="middle" x="681" y="-103" font-family="Helvetica,Arial,sans-serif" font-size="10.00">G6</text>
<text text-anchor="middle" x="681" y="-92" font-family="Helvetica,Arial,sans-serif" font-size="10.00">న III &#160;· &#160;హ UI</text>
</g>
<!-- all_G5&#45;&gt;all_G6 -->
<g id="edge6" class="edge">
<title>all_G5&#45;&gt;all_G6</title>
<path fill="none" stroke="#607d8b" d="M608.03,-100C617.5,-100 627.31,-100 636.54,-100"/>
<polygon fill="#607d8b" stroke="#607d8b" points="636.8,-102.45 643.8,-100 636.8,-97.55 636.8,-102.45"/>
</g>
<!-- all_G7 -->
<g id="node9" class="node">
<title>all_G7</title>
<path fill="#f4f4f4" stroke="black" d="M816,-118C816,-118 766,-118 766,-118 760,-118 754,-112 754,-106 754,-106 754,-94 754,-94 754,-88 760,-82 766,-82 766,-82 816,-82 816,-82 822,-82 828,-88 828,-94 828,-94 828,-106 828,-106 828,-112 822,-118 816,-118"/>
<text text-anchor="middle" x="791" y="-103" font-family="Helvetica,Arial,sans-serif" font-size="10.00">G7</text>
<text text-anchor="middle" x="791" y="-92" font-family="Helvetica,Arial,sans-serif" font-size="10.00">న III &#160;· &#160;హ UI</text>
</g>
<!-- all_G6&#45;&gt;all_G7 -->
<g id="edge7" class="edge">
<title>all_G6&#45;&gt;all_G7</title>
<path fill="none" stroke="#607d8b" d="M718.26,-100C727.35,-100 737.18,-100 746.57,-100"/>
<polygon fill="#607d8b" stroke="#607d8b" points="746.65,-102.45 753.65,-100 746.65,-97.55 746.65,-102.45"/>
</g>
<!-- all_G8 -->
<g id="node10" class="node">
<title>all_G8</title>
<path fill="#e3f2fd" stroke="black" d="M908,-118C908,-118 876,-118 876,-118 870,-118 864,-112 864,-106 864,-106 864,-94 864,-94 864,-88 870,-82 876,-82 876,-82 908,-82 908,-82 914,-82 920,-88 920,-94 920,-94 920,-106 920,-106 920,-112 914,-118 908,-118"/>
<text text-anchor="middle" x="892" y="-103" font-family="Helvetica,Arial,sans-serif" font-size="10.00">G8</text>
<text text-anchor="middle" x="892" y="-92" font-family="Helvetica,Arial,sans-serif" font-size="10.00">గురువు U</text>
</g>
<!-- all_G7&#45;&gt;all_G8 -->
<g id="edge8" class="edge">
<title>all_G7&#45;&gt;all_G8</title>
<path fill="none" stroke="#607d8b" d="M828.02,-100C837.36,-100 847.38,-100 856.63,-100"/>
<polygon fill="#607d8b" stroke="#607d8b" points="856.85,-102.45 863.85,-100 856.85,-97.55 856.85,-102.45"/>
</g>
<!-- all_G8&#45;&gt;all_end -->
<g id="edge9" class="edge">
<title>all_G8&#45;&gt;all_end</title>
<path fill="none" stroke="#607d8b" d="M920.41,-100C929.99,-100 940.44,-100 948.87,-100"/>
<polygon fill="#607d8b" stroke="#607d8b" points="948.96,-102.45 955.96,-100 948.96,-97.55 948.96,-102.45"/>
</g>
</g>
</svg>
